<?xml version="1.0" encoding="utf-8" standalone="no"?>
<!DOCTYPE svg PUBLIC "-//W3C//DTD SVG 1.1//EN"
  "http://www.w3.org/Graphics/SVG/1.1/DTD/svg11.dtd">
<svg xmlns:xlink="http://www.w3.org/1999/xlink" width="288pt" height="172.8pt" viewBox="0 0 288 172.8" xmlns="http://www.w3.org/2000/svg" version="1.1">
 <metadata>
  <rdf:RDF xmlns:dc="http://purl.org/dc/elements/1.1/" xmlns:cc="http://creativecommons.org/ns#" xmlns:rdf="http://www.w3.org/1999/02/22-rdf-syntax-ns#">
   <cc:Work>
    <dc:type rdf:resource="http://purl.org/dc/dcmitype/StillImage"/>
    <dc:date>2024-02-10T23:17:20.670844</dc:date>
    <dc:format>image/svg+xml</dc:format>
    <dc:creator>
     <cc:Agent>
      <dc:title>Matplotlib v3.8.2, https://matplotlib.org/</dc:title>
     </cc:Agent>
    </dc:creator>
   </cc:Work>
  </rdf:RDF>
 </metadata>
 <defs>
  <style type="text/css">*{stroke-linejoin: round; stroke-linecap: butt}</style>
 </defs>
 <g id="figure_1">
  <g id="patch_1">
   <path d="M 0 172.8 
L 288 172.8 
L 288 0 
L 0 0 
z
" style="fill: #ffffff"/>
  </g>
  <g id="axes_1">
   <g id="patch_2">
    <path d="M 28.8 120.96 
L 273.6 120.96 
L 273.6 25.92 
L 28.8 25.92 
z
" style="fill: #bfbfbf; fill-opacity: 0.25"/>
   </g>
   <g id="matplotlib.axis_1">
    <g id="xtick_1">
     <g id="line2d_1">
      <path d="M 35.6 120.96 
L 35.6 25.92 
" clip-path="url(#p0ae81dc5f8)" style="fill: none; stroke: #ffffff; stroke-linecap: square"/>
     </g>
     <g id="line2d_2">
      <defs>
       <path id="mfd4df9a7bf" d="M 0 0 
L 0 3.5 
" style="stroke: #000000; stroke-width: 0.8"/>
      </defs>
      <g>
       <use xlink:href="#mfd4df9a7bf" x="35.6" y="120.96" style="stroke: #000000; stroke-width: 0.8"/>
      </g>
     </g>
     <g id="text_1">
      <!-- 25 -->
      <g transform="translate(31.1075 133.96) scale(0.08 -0.08)">
       <defs>
        <path id="Roboto-Regular-32" d="M 3359 0 
L 378 0 
L 378 416 
L 1953 2166 
Q 2303 2563 2436 2811 
Q 2569 3059 2569 3325 
Q 2569 3681 2353 3909 
Q 2138 4138 1778 4138 
Q 1347 4138 1108 3892 
Q 869 3647 869 3209 
L 291 3209 
Q 291 3838 695 4225 
Q 1100 4613 1778 4613 
Q 2413 4613 2781 4280 
Q 3150 3947 3150 3394 
Q 3150 2722 2294 1794 
L 1075 472 
L 3359 472 
L 3359 0 
z
" transform="scale(0.015625)"/>
        <path id="Roboto-Regular-35" d="M 644 2281 
L 875 4550 
L 3206 4550 
L 3206 4016 
L 1366 4016 
L 1228 2775 
Q 1563 2972 1988 2972 
Q 2609 2972 2975 2561 
Q 3341 2150 3341 1450 
Q 3341 747 2961 342 
Q 2581 -63 1900 -63 
Q 1297 -63 915 271 
Q 534 606 481 1197 
L 1028 1197 
Q 1081 806 1306 607 
Q 1531 409 1900 409 
Q 2303 409 2533 684 
Q 2763 959 2763 1444 
Q 2763 1900 2514 2176 
Q 2266 2453 1853 2453 
Q 1475 2453 1259 2288 
L 1106 2163 
L 644 2281 
z
" transform="scale(0.015625)"/>
       </defs>
       <use xlink:href="#Roboto-Regular-32"/>
       <use xlink:href="#Roboto-Regular-35" x="56.152344"/>
      </g>
     </g>
    </g>
    <g id="xtick_2">
     <g id="line2d_3">
      <path d="M 69.6 120.96 
L 69.6 25.92 
" clip-path="url(#p0ae81dc5f8)" style="fill: none; stroke: #ffffff; stroke-linecap: square"/>
     </g>
     <g id="line2d_4">
      <g>
       <use xlink:href="#mfd4df9a7bf" x="69.6" y="120.96" style="stroke: #000000; stroke-width: 0.8"/>
      </g>
     </g>
     <g id="text_2">
      <!-- 50 -->
      <g transform="translate(65.1075 133.96) scale(0.08 -0.08)">
       <defs>
        <path id="Roboto-Regular-30" d="M 3231 1941 
Q 3231 925 2884 431 
Q 2538 -63 1800 -63 
Q 1072 -63 722 420 
Q 372 903 359 1863 
L 359 2634 
Q 359 3638 706 4125 
Q 1053 4613 1794 4613 
Q 2528 4613 2875 4142 
Q 3222 3672 3231 2691 
L 3231 1941 
z
M 2653 2731 
Q 2653 3466 2447 3802 
Q 2241 4138 1794 4138 
Q 1350 4138 1147 3803 
Q 944 3469 938 2775 
L 938 1850 
Q 938 1113 1152 761 
Q 1366 409 1800 409 
Q 2228 409 2436 740 
Q 2644 1072 2653 1784 
L 2653 2731 
z
" transform="scale(0.015625)"/>
       </defs>
       <use xlink:href="#Roboto-Regular-35"/>
       <use xlink:href="#Roboto-Regular-30" x="56.152344"/>
      </g>
     </g>
    </g>
    <g id="xtick_3">
     <g id="line2d_5">
      <path d="M 103.6 120.96 
L 103.6 25.92 
" clip-path="url(#p0ae81dc5f8)" style="fill: none; stroke: #ffffff; stroke-linecap: square"/>
     </g>
     <g id="line2d_6">
      <g>
       <use xlink:href="#mfd4df9a7bf" x="103.6" y="120.96" style="stroke: #000000; stroke-width: 0.8"/>
      </g>
     </g>
     <g id="text_3">
      <!-- 75 -->
      <g transform="translate(99.1075 133.96) scale(0.08 -0.08)">
       <defs>
        <path id="Roboto-Regular-37" d="M 3316 4225 
L 1431 0 
L 825 0 
L 2703 4075 
L 241 4075 
L 241 4550 
L 3316 4550 
L 3316 4225 
z
" transform="scale(0.015625)"/>
       </defs>
       <use xlink:href="#Roboto-Regular-37"/>
       <use xlink:href="#Roboto-Regular-35" x="56.152344"/>
      </g>
     </g>
    </g>
    <g id="xtick_4">
     <g id="line2d_7">
      <path d="M 137.6 120.96 
L 137.6 25.92 
" clip-path="url(#p0ae81dc5f8)" style="fill: none; stroke: #ffffff; stroke-linecap: square"/>
     </g>
     <g id="line2d_8">
      <g>
       <use xlink:href="#mfd4df9a7bf" x="137.6" y="120.96" style="stroke: #000000; stroke-width: 0.8"/>
      </g>
     </g>
     <g id="text_4">
      <!-- 100 -->
      <g transform="translate(130.86125 133.96) scale(0.08 -0.08)">
       <defs>
        <path id="Roboto-Regular-31" d="M 2278 0 
L 1697 0 
L 1697 3853 
L 531 3425 
L 531 3950 
L 2188 4572 
L 2278 4572 
L 2278 0 
z
" transform="scale(0.015625)"/>
       </defs>
       <use xlink:href="#Roboto-Regular-31"/>
       <use xlink:href="#Roboto-Regular-30" x="56.152344"/>
       <use xlink:href="#Roboto-Regular-30" x="112.304688"/>
      </g>
     </g>
    </g>
    <g id="xtick_5">
     <g id="line2d_9">
      <path d="M 171.6 120.96 
L 171.6 25.92 
" clip-path="url(#p0ae81dc5f8)" style="fill: none; stroke: #ffffff; stroke-linecap: square"/>
     </g>
     <g id="line2d_10">
      <g>
       <use xlink:href="#mfd4df9a7bf" x="171.6" y="120.96" style="stroke: #000000; stroke-width: 0.8"/>
      </g>
     </g>
     <g id="text_5">
      <!-- 125 -->
      <g transform="translate(164.86125 133.96) scale(0.08 -0.08)">
       <use xlink:href="#Roboto-Regular-31"/>
       <use xlink:href="#Roboto-Regular-32" x="56.152344"/>
       <use xlink:href="#Roboto-Regular-35" x="112.304688"/>
      </g>
     </g>
    </g>
    <g id="xtick_6">
     <g id="line2d_11">
      <path d="M 205.6 120.96 
L 205.6 25.92 
" clip-path="url(#p0ae81dc5f8)" style="fill: none; stroke: #ffffff; stroke-linecap: square"/>
     </g>
     <g id="line2d_12">
      <g>
       <use xlink:href="#mfd4df9a7bf" x="205.6" y="120.96" style="stroke: #000000; stroke-width: 0.8"/>
      </g>
     </g>
     <g id="text_6">
      <!-- 150 -->
      <g transform="translate(198.86125 133.96) scale(0.08 -0.08)">
       <use xlink:href="#Roboto-Regular-31"/>
       <use xlink:href="#Roboto-Regular-35" x="56.152344"/>
       <use xlink:href="#Roboto-Regular-30" x="112.304688"/>
      </g>
     </g>
    </g>
    <g id="xtick_7">
     <g id="line2d_13">
      <path d="M 239.6 120.96 
L 239.6 25.92 
" clip-path="url(#p0ae81dc5f8)" style="fill: none; stroke: #ffffff; stroke-linecap: square"/>
     </g>
     <g id="line2d_14">
      <g>
       <use xlink:href="#mfd4df9a7bf" x="239.6" y="120.96" style="stroke: #000000; stroke-width: 0.8"/>
      </g>
     </g>
     <g id="text_7">
      <!-- 175 -->
      <g transform="translate(232.86125 133.96) scale(0.08 -0.08)">
       <use xlink:href="#Roboto-Regular-31"/>
       <use xlink:href="#Roboto-Regular-37" x="56.152344"/>
       <use xlink:href="#Roboto-Regular-35" x="112.304688"/>
      </g>
     </g>
    </g>
    <g id="xtick_8">
     <g id="line2d_15">
      <path d="M 273.6 120.96 
L 273.6 25.92 
" clip-path="url(#p0ae81dc5f8)" style="fill: none; stroke: #ffffff; stroke-linecap: square"/>
     </g>
     <g id="line2d_16">
      <g>
       <use xlink:href="#mfd4df9a7bf" x="273.6" y="120.96" style="stroke: #000000; stroke-width: 0.8"/>
      </g>
     </g>
     <g id="text_8">
      <!-- 200 -->
      <g transform="translate(266.86125 133.96) scale(0.08 -0.08)">
       <use xlink:href="#Roboto-Regular-32"/>
       <use xlink:href="#Roboto-Regular-30" x="56.152344"/>
       <use xlink:href="#Roboto-Regular-30" x="112.304688"/>
      </g>
     </g>
    </g>
    <g id="xtick_9">
     <g id="line2d_17">
      <path d="M 28.8 120.96 
L 28.8 25.92 
" clip-path="url(#p0ae81dc5f8)" style="fill: none; stroke: #ffffff; stroke-width: 0.5; stroke-linecap: square"/>
     </g>
     <g id="line2d_18">
      <defs>
       <path id="m677452f431" d="M 0 0 
L 0 2 
" style="stroke: #000000; stroke-width: 0.6"/>
      </defs>
      <g>
       <use xlink:href="#m677452f431" x="28.8" y="120.96" style="stroke: #000000; stroke-width: 0.6"/>
      </g>
     </g>
    </g>
    <g id="xtick_10">
     <g id="line2d_19">
      <path d="M 42.4 120.96 
L 42.4 25.92 
" clip-path="url(#p0ae81dc5f8)" style="fill: none; stroke: #ffffff; stroke-width: 0.5; stroke-linecap: square"/>
     </g>
     <g id="line2d_20">
      <g>
       <use xlink:href="#m677452f431" x="42.4" y="120.96" style="stroke: #000000; stroke-width: 0.6"/>
      </g>
     </g>
    </g>
    <g id="xtick_11">
     <g id="line2d_21">
      <path d="M 49.2 120.96 
L 49.2 25.92 
" clip-path="url(#p0ae81dc5f8)" style="fill: none; stroke: #ffffff; stroke-width: 0.5; stroke-linecap: square"/>
     </g>
     <g id="line2d_22">
      <g>
       <use xlink:href="#m677452f431" x="49.2" y="120.96" style="stroke: #000000; stroke-width: 0.6"/>
      </g>
     </g>
    </g>
    <g id="xtick_12">
     <g id="line2d_23">
      <path d="M 56 120.96 
L 56 25.92 
" clip-path="url(#p0ae81dc5f8)" style="fill: none; stroke: #ffffff; stroke-width: 0.5; stroke-linecap: square"/>
     </g>
     <g id="line2d_24">
      <g>
       <use xlink:href="#m677452f431" x="56" y="120.96" style="stroke: #000000; stroke-width: 0.6"/>
      </g>
     </g>
    </g>
    <g id="xtick_13">
     <g id="line2d_25">
      <path d="M 62.8 120.96 
L 62.8 25.92 
" clip-path="url(#p0ae81dc5f8)" style="fill: none; stroke: #ffffff; stroke-width: 0.5; stroke-linecap: square"/>
     </g>
     <g id="line2d_26">
      <g>
       <use xlink:href="#m677452f431" x="62.8" y="120.96" style="stroke: #000000; stroke-width: 0.6"/>
      </g>
     </g>
    </g>
    <g id="xtick_14">
     <g id="line2d_27">
      <path d="M 76.4 120.96 
L 76.4 25.92 
" clip-path="url(#p0ae81dc5f8)" style="fill: none; stroke: #ffffff; stroke-width: 0.5; stroke-linecap: square"/>
     </g>
     <g id="line2d_28">
      <g>
       <use xlink:href="#m677452f431" x="76.4" y="120.96" style="stroke: #000000; stroke-width: 0.6"/>
      </g>
     </g>
    </g>
    <g id="xtick_15">
     <g id="line2d_29">
      <path d="M 83.2 120.96 
L 83.2 25.92 
" clip-path="url(#p0ae81dc5f8)" style="fill: none; stroke: #ffffff; stroke-width: 0.5; stroke-linecap: square"/>
     </g>
     <g id="line2d_30">
      <g>
       <use xlink:href="#m677452f431" x="83.2" y="120.96" style="stroke: #000000; stroke-width: 0.6"/>
      </g>
     </g>
    </g>
    <g id="xtick_16">
     <g id="line2d_31">
      <path d="M 90 120.96 
L 90 25.92 
" clip-path="url(#p0ae81dc5f8)" style="fill: none; stroke: #ffffff; stroke-width: 0.5; stroke-linecap: square"/>
     </g>
     <g id="line2d_32">
      <g>
       <use xlink:href="#m677452f431" x="90" y="120.96" style="stroke: #000000; stroke-width: 0.6"/>
      </g>
     </g>
    </g>
    <g id="xtick_17">
     <g id="line2d_33">
      <path d="M 96.8 120.96 
L 96.8 25.92 
" clip-path="url(#p0ae81dc5f8)" style="fill: none; stroke: #ffffff; stroke-width: 0.5; stroke-linecap: square"/>
     </g>
     <g id="line2d_34">
      <g>
       <use xlink:href="#m677452f431" x="96.8" y="120.96" style="stroke: #000000; stroke-width: 0.6"/>
      </g>
     </g>
    </g>
    <g id="xtick_18">
     <g id="line2d_35">
      <path d="M 110.4 120.96 
L 110.4 25.92 
" clip-path="url(#p0ae81dc5f8)" style="fill: none; stroke: #ffffff; stroke-width: 0.5; stroke-linecap: square"/>
     </g>
     <g id="line2d_36">
      <g>
       <use xlink:href="#m677452f431" x="110.4" y="120.96" style="stroke: #000000; stroke-width: 0.6"/>
      </g>
     </g>
    </g>
    <g id="xtick_19">
     <g id="line2d_37">
      <path d="M 117.2 120.96 
L 117.2 25.92 
" clip-path="url(#p0ae81dc5f8)" style="fill: none; stroke: #ffffff; stroke-width: 0.5; stroke-linecap: square"/>
     </g>
     <g id="line2d_38">
      <g>
       <use xlink:href="#m677452f431" x="117.2" y="120.96" style="stroke: #000000; stroke-width: 0.6"/>
      </g>
     </g>
    </g>
    <g id="xtick_20">
     <g id="line2d_39">
      <path d="M 124 120.96 
L 124 25.92 
" clip-path="url(#p0ae81dc5f8)" style="fill: none; stroke: #ffffff; stroke-width: 0.5; stroke-linecap: square"/>
     </g>
     <g id="line2d_40">
      <g>
       <use xlink:href="#m677452f431" x="124" y="120.96" style="stroke: #000000; stroke-width: 0.6"/>
      </g>
     </g>
    </g>
    <g id="xtick_21">
     <g id="line2d_41">
      <path d="M 130.8 120.96 
L 130.8 25.92 
" clip-path="url(#p0ae81dc5f8)" style="fill: none; stroke: #ffffff; stroke-width: 0.5; stroke-linecap: square"/>
     </g>
     <g id="line2d_42">
      <g>
       <use xlink:href="#m677452f431" x="130.8" y="120.96" style="stroke: #000000; stroke-width: 0.6"/>
      </g>
     </g>
    </g>
    <g id="xtick_22">
     <g id="line2d_43">
      <path d="M 144.4 120.96 
L 144.4 25.92 
" clip-path="url(#p0ae81dc5f8)" style="fill: none; stroke: #ffffff; stroke-width: 0.5; stroke-linecap: square"/>
     </g>
     <g id="line2d_44">
      <g>
       <use xlink:href="#m677452f431" x="144.4" y="120.96" style="stroke: #000000; stroke-width: 0.6"/>
      </g>
     </g>
    </g>
    <g id="xtick_23">
     <g id="line2d_45">
      <path d="M 151.2 120.96 
L 151.2 25.92 
" clip-path="url(#p0ae81dc5f8)" style="fill: none; stroke: #ffffff; stroke-width: 0.5; stroke-linecap: square"/>
     </g>
     <g id="line2d_46">
      <g>
       <use xlink:href="#m677452f431" x="151.2" y="120.96" style="stroke: #000000; stroke-width: 0.6"/>
      </g>
     </g>
    </g>
    <g id="xtick_24">
     <g id="line2d_47">
      <path d="M 158 120.96 
L 158 25.92 
" clip-path="url(#p0ae81dc5f8)" style="fill: none; stroke: #ffffff; stroke-width: 0.5; stroke-linecap: square"/>
     </g>
     <g id="line2d_48">
      <g>
       <use xlink:href="#m677452f431" x="158" y="120.96" style="stroke: #000000; stroke-width: 0.6"/>
      </g>
     </g>
    </g>
    <g id="xtick_25">
     <g id="line2d_49">
      <path d="M 164.8 120.96 
L 164.8 25.92 
" clip-path="url(#p0ae81dc5f8)" style="fill: none; stroke: #ffffff; stroke-width: 0.5; stroke-linecap: square"/>
     </g>
     <g id="line2d_50">
      <g>
       <use xlink:href="#m677452f431" x="164.8" y="120.96" style="stroke: #000000; stroke-width: 0.6"/>
      </g>
     </g>
    </g>
    <g id="xtick_26">
     <g id="line2d_51">
      <path d="M 178.4 120.96 
L 178.4 25.92 
" clip-path="url(#p0ae81dc5f8)" style="fill: none; stroke: #ffffff; stroke-width: 0.5; stroke-linecap: square"/>
     </g>
     <g id="line2d_52">
      <g>
       <use xlink:href="#m677452f431" x="178.4" y="120.96" style="stroke: #000000; stroke-width: 0.6"/>
      </g>
     </g>
    </g>
    <g id="xtick_27">
     <g id="line2d_53">
      <path d="M 185.2 120.96 
L 185.2 25.92 
" clip-path="url(#p0ae81dc5f8)" style="fill: none; stroke: #ffffff; stroke-width: 0.5; stroke-linecap: square"/>
     </g>
     <g id="line2d_54">
      <g>
       <use xlink:href="#m677452f431" x="185.2" y="120.96" style="stroke: #000000; stroke-width: 0.6"/>
      </g>
     </g>
    </g>
    <g id="xtick_28">
     <g id="line2d_55">
      <path d="M 192 120.96 
L 192 25.92 
" clip-path="url(#p0ae81dc5f8)" style="fill: none; stroke: #ffffff; stroke-width: 0.5; stroke-linecap: square"/>
     </g>
     <g id="line2d_56">
      <g>
       <use xlink:href="#m677452f431" x="192" y="120.96" style="stroke: #000000; stroke-width: 0.6"/>
      </g>
     </g>
    </g>
    <g id="xtick_29">
     <g id="line2d_57">
      <path d="M 198.8 120.96 
L 198.8 25.92 
" clip-path="url(#p0ae81dc5f8)" style="fill: none; stroke: #ffffff; stroke-width: 0.5; stroke-linecap: square"/>
     </g>
     <g id="line2d_58">
      <g>
       <use xlink:href="#m677452f431" x="198.8" y="120.96" style="stroke: #000000; stroke-width: 0.6"/>
      </g>
     </g>
    </g>
    <g id="xtick_30">
     <g id="line2d_59">
      <path d="M 212.4 120.96 
L 212.4 25.92 
" clip-path="url(#p0ae81dc5f8)" style="fill: none; stroke: #ffffff; stroke-width: 0.5; stroke-linecap: square"/>
     </g>
     <g id="line2d_60">
      <g>
       <use xlink:href="#m677452f431" x="212.4" y="120.96" style="stroke: #000000; stroke-width: 0.6"/>
      </g>
     </g>
    </g>
    <g id="xtick_31">
     <g id="line2d_61">
      <path d="M 219.2 120.96 
L 219.2 25.92 
" clip-path="url(#p0ae81dc5f8)" style="fill: none; stroke: #ffffff; stroke-width: 0.5; stroke-linecap: square"/>
     </g>
     <g id="line2d_62">
      <g>
       <use xlink:href="#m677452f431" x="219.2" y="120.96" style="stroke: #000000; stroke-width: 0.6"/>
      </g>
     </g>
    </g>
    <g id="xtick_32">
     <g id="line2d_63">
      <path d="M 226 120.96 
L 226 25.92 
" clip-path="url(#p0ae81dc5f8)" style="fill: none; stroke: #ffffff; stroke-width: 0.5; stroke-linecap: square"/>
     </g>
     <g id="line2d_64">
      <g>
       <use xlink:href="#m677452f431" x="226" y="120.96" style="stroke: #000000; stroke-width: 0.6"/>
      </g>
     </g>
    </g>
    <g id="xtick_33">
     <g id="line2d_65">
      <path d="M 232.8 120.96 
L 232.8 25.92 
" clip-path="url(#p0ae81dc5f8)" style="fill: none; stroke: #ffffff; stroke-width: 0.5; stroke-linecap: square"/>
     </g>
     <g id="line2d_66">
      <g>
       <use xlink:href="#m677452f431" x="232.8" y="120.96" style="stroke: #000000; stroke-width: 0.6"/>
      </g>
     </g>
    </g>
    <g id="xtick_34">
     <g id="line2d_67">
      <path d="M 246.4 120.96 
L 246.4 25.92 
" clip-path="url(#p0ae81dc5f8)" style="fill: none; stroke: #ffffff; stroke-width: 0.5; stroke-linecap: square"/>
     </g>
     <g id="line2d_68">
      <g>
       <use xlink:href="#m677452f431" x="246.4" y="120.96" style="stroke: #000000; stroke-width: 0.6"/>
      </g>
     </g>
    </g>
    <g id="xtick_35">
     <g id="line2d_69">
      <path d="M 253.2 120.96 
L 253.2 25.92 
" clip-path="url(#p0ae81dc5f8)" style="fill: none; stroke: #ffffff; stroke-width: 0.5; stroke-linecap: square"/>
     </g>
     <g id="line2d_70">
      <g>
       <use xlink:href="#m677452f431" x="253.2" y="120.96" style="stroke: #000000; stroke-width: 0.6"/>
      </g>
     </g>
    </g>
    <g id="xtick_36">
     <g id="line2d_71">
      <path d="M 260 120.96 
L 260 25.92 
" clip-path="url(#p0ae81dc5f8)" style="fill: none; stroke: #ffffff; stroke-width: 0.5; stroke-linecap: square"/>
     </g>
     <g id="line2d_72">
      <g>
       <use xlink:href="#m677452f431" x="260" y="120.96" style="stroke: #000000; stroke-width: 0.6"/>
      </g>
     </g>
    </g>
    <g id="xtick_37">
     <g id="line2d_73">
      <path d="M 266.8 120.96 
L 266.8 25.92 
" clip-path="url(#p0ae81dc5f8)" style="fill: none; stroke: #ffffff; stroke-width: 0.5; stroke-linecap: square"/>
     </g>
     <g id="line2d_74">
      <g>
       <use xlink:href="#m677452f431" x="266.8" y="120.96" style="stroke: #000000; stroke-width: 0.6"/>
      </g>
     </g>
    </g>
    <g id="text_9">
     <!-- Pressure (mmHg) -->
     <g transform="translate(111.630469 147.606875) scale(0.1 -0.1)">
      <defs>
       <path id="Roboto-Regular-50" d="M 1128 1781 
L 1128 0 
L 528 0 
L 528 4550 
L 2206 4550 
Q 2953 4550 3376 4169 
Q 3800 3788 3800 3159 
Q 3800 2497 3386 2139 
Q 2972 1781 2200 1781 
L 1128 1781 
z
M 1128 2272 
L 2206 2272 
Q 2688 2272 2944 2498 
Q 3200 2725 3200 3153 
Q 3200 3559 2944 3803 
Q 2688 4047 2241 4056 
L 1128 4056 
L 1128 2272 
z
" transform="scale(0.015625)"/>
       <path id="Roboto-Regular-72" d="M 2072 2863 
Q 1941 2884 1788 2884 
Q 1219 2884 1016 2400 
L 1016 0 
L 438 0 
L 438 3381 
L 1000 3381 
L 1009 2991 
Q 1294 3444 1816 3444 
Q 1984 3444 2072 3400 
L 2072 2863 
z
" transform="scale(0.015625)"/>
       <path id="Roboto-Regular-65" d="M 1841 -63 
Q 1153 -63 722 389 
Q 291 841 291 1597 
L 291 1703 
Q 291 2206 483 2601 
Q 675 2997 1020 3220 
Q 1366 3444 1769 3444 
Q 2428 3444 2793 3009 
Q 3159 2575 3159 1766 
L 3159 1525 
L 869 1525 
Q 881 1025 1161 717 
Q 1441 409 1872 409 
Q 2178 409 2390 534 
Q 2603 659 2763 866 
L 3116 591 
Q 2691 -63 1841 -63 
z
M 1769 2969 
Q 1419 2969 1181 2714 
Q 944 2459 888 2000 
L 2581 2000 
L 2581 2044 
Q 2556 2484 2343 2726 
Q 2131 2969 1769 2969 
z
" transform="scale(0.015625)"/>
       <path id="Roboto-Regular-73" d="M 2406 897 
Q 2406 1131 2229 1261 
Q 2053 1391 1614 1484 
Q 1175 1578 917 1709 
Q 659 1841 536 2022 
Q 413 2203 413 2453 
Q 413 2869 764 3156 
Q 1116 3444 1663 3444 
Q 2238 3444 2595 3147 
Q 2953 2850 2953 2388 
L 2372 2388 
Q 2372 2625 2170 2797 
Q 1969 2969 1663 2969 
Q 1347 2969 1169 2831 
Q 991 2694 991 2472 
Q 991 2263 1156 2156 
Q 1322 2050 1755 1953 
Q 2188 1856 2456 1722 
Q 2725 1588 2854 1398 
Q 2984 1209 2984 938 
Q 2984 484 2621 210 
Q 2259 -63 1681 -63 
Q 1275 -63 962 81 
Q 650 225 473 483 
Q 297 741 297 1041 
L 875 1041 
Q 891 750 1108 579 
Q 1325 409 1681 409 
Q 2009 409 2207 542 
Q 2406 675 2406 897 
z
" transform="scale(0.015625)"/>
       <path id="Roboto-Regular-75" d="M 2525 334 
Q 2188 -63 1534 -63 
Q 994 -63 711 251 
Q 428 566 425 1181 
L 425 3381 
L 1003 3381 
L 1003 1197 
Q 1003 428 1628 428 
Q 2291 428 2509 922 
L 2509 3381 
L 3088 3381 
L 3088 0 
L 2538 0 
L 2525 334 
z
" transform="scale(0.015625)"/>
       <path id="Roboto-Regular-20" transform="scale(0.015625)"/>
       <path id="Roboto-Regular-28" d="M 416 1847 
Q 416 2553 605 3203 
Q 794 3853 1169 4384 
Q 1544 4916 1947 5134 
L 2066 4753 
Q 1609 4403 1317 3684 
Q 1025 2966 997 2075 
L 994 1809 
Q 994 603 1434 -284 
Q 1700 -816 2066 -1116 
L 1947 -1469 
Q 1531 -1238 1153 -694 
Q 416 369 416 1847 
z
" transform="scale(0.015625)"/>
       <path id="Roboto-Regular-6d" d="M 981 3381 
L 997 3006 
Q 1369 3444 2000 3444 
Q 2709 3444 2966 2900 
Q 3134 3144 3404 3294 
Q 3675 3444 4044 3444 
Q 5156 3444 5175 2266 
L 5175 0 
L 4597 0 
L 4597 2231 
Q 4597 2594 4431 2773 
Q 4266 2953 3875 2953 
Q 3553 2953 3340 2761 
Q 3128 2569 3094 2244 
L 3094 0 
L 2513 0 
L 2513 2216 
Q 2513 2953 1791 2953 
Q 1222 2953 1013 2469 
L 1013 0 
L 434 0 
L 434 3381 
L 981 3381 
z
" transform="scale(0.015625)"/>
       <path id="Roboto-Regular-48" d="M 4025 0 
L 3422 0 
L 3422 2103 
L 1128 2103 
L 1128 0 
L 528 0 
L 528 4550 
L 1128 4550 
L 1128 2594 
L 3422 2594 
L 3422 4550 
L 4025 4550 
L 4025 0 
z
" transform="scale(0.015625)"/>
       <path id="Roboto-Regular-67" d="M 300 1719 
Q 300 2509 665 2976 
Q 1031 3444 1634 3444 
Q 2253 3444 2600 3006 
L 2628 3381 
L 3156 3381 
L 3156 81 
Q 3156 -575 2767 -953 
Q 2378 -1331 1722 -1331 
Q 1356 -1331 1006 -1175 
Q 656 -1019 472 -747 
L 772 -400 
Q 1144 -859 1681 -859 
Q 2103 -859 2339 -621 
Q 2575 -384 2575 47 
L 2575 338 
Q 2228 -63 1628 -63 
Q 1034 -63 667 415 
Q 300 894 300 1719 
z
M 881 1653 
Q 881 1081 1115 754 
Q 1350 428 1772 428 
Q 2319 428 2575 925 
L 2575 2469 
Q 2309 2953 1778 2953 
Q 1356 2953 1118 2625 
Q 881 2297 881 1653 
z
" transform="scale(0.015625)"/>
       <path id="Roboto-Regular-29" d="M 1772 1816 
Q 1772 1119 1589 480 
Q 1406 -159 1029 -700 
Q 653 -1241 241 -1469 
L 119 -1116 
Q 600 -747 892 29 
Q 1184 806 1191 1753 
L 1191 1853 
Q 1191 2509 1053 3073 
Q 916 3638 670 4084 
Q 425 4531 119 4781 
L 241 5134 
Q 653 4906 1026 4372 
Q 1400 3838 1586 3194 
Q 1772 2550 1772 1816 
z
" transform="scale(0.015625)"/>
      </defs>
      <use xlink:href="#Roboto-Regular-50"/>
      <use xlink:href="#Roboto-Regular-72" x="63.085938"/>
      <use xlink:href="#Roboto-Regular-65" x="96.923828"/>
      <use xlink:href="#Roboto-Regular-73" x="149.902344"/>
      <use xlink:href="#Roboto-Regular-73" x="201.464844"/>
      <use xlink:href="#Roboto-Regular-75" x="253.027344"/>
      <use xlink:href="#Roboto-Regular-72" x="308.154297"/>
      <use xlink:href="#Roboto-Regular-65" x="341.992188"/>
      <use xlink:href="#Roboto-Regular-20" x="394.970703"/>
      <use xlink:href="#Roboto-Regular-28" x="419.726562"/>
      <use xlink:href="#Roboto-Regular-6d" x="453.90625"/>
      <use xlink:href="#Roboto-Regular-6d" x="541.552734"/>
      <use xlink:href="#Roboto-Regular-48" x="629.199219"/>
      <use xlink:href="#Roboto-Regular-67" x="700.488281"/>
      <use xlink:href="#Roboto-Regular-29" x="756.591797"/>
     </g>
    </g>
   </g>
   <g id="matplotlib.axis_2">
    <g id="ytick_1">
     <g id="line2d_75">
      <path d="M 28.8 120.96 
L 273.6 120.96 
" clip-path="url(#p0ae81dc5f8)" style="fill: none; stroke: #ffffff; stroke-linecap: square"/>
     </g>
     <g id="line2d_76">
      <defs>
       <path id="m31bfe09d35" d="M 0 0 
L -3.5 0 
" style="stroke: #000000; stroke-width: 0.8"/>
      </defs>
      <g>
       <use xlink:href="#m31bfe09d35" x="28.8" y="120.96" style="stroke: #000000; stroke-width: 0.8"/>
      </g>
     </g>
     <g id="text_10">
      <!-- 0.0 -->
      <g transform="translate(10.71 123.96) scale(0.08 -0.08)">
       <defs>
        <path id="Roboto-Regular-2e" d="M 450 303 
Q 450 453 539 553 
Q 628 653 806 653 
Q 984 653 1076 553 
Q 1169 453 1169 303 
Q 1169 159 1076 62 
Q 984 -34 806 -34 
Q 628 -34 539 62 
Q 450 159 450 303 
z
" transform="scale(0.015625)"/>
       </defs>
       <use xlink:href="#Roboto-Regular-30"/>
       <use xlink:href="#Roboto-Regular-2e" x="56.152344"/>
       <use xlink:href="#Roboto-Regular-30" x="82.470703"/>
      </g>
     </g>
    </g>
    <g id="ytick_2">
     <g id="line2d_77">
      <path d="M 28.8 92.0256 
L 273.6 92.0256 
" clip-path="url(#p0ae81dc5f8)" style="fill: none; stroke: #ffffff; stroke-linecap: square"/>
     </g>
     <g id="line2d_78">
      <g>
       <use xlink:href="#m31bfe09d35" x="28.8" y="92.0256" style="stroke: #000000; stroke-width: 0.8"/>
      </g>
     </g>
     <g id="text_11">
      <!-- 2.5 -->
      <g transform="translate(10.71 95.0256) scale(0.08 -0.08)">
       <use xlink:href="#Roboto-Regular-32"/>
       <use xlink:href="#Roboto-Regular-2e" x="56.152344"/>
       <use xlink:href="#Roboto-Regular-35" x="82.470703"/>
      </g>
     </g>
    </g>
    <g id="ytick_3">
     <g id="line2d_79">
      <path d="M 28.8 63.0912 
L 273.6 63.0912 
" clip-path="url(#p0ae81dc5f8)" style="fill: none; stroke: #ffffff; stroke-linecap: square"/>
     </g>
     <g id="line2d_80">
      <g>
       <use xlink:href="#m31bfe09d35" x="28.8" y="63.0912" style="stroke: #000000; stroke-width: 0.8"/>
      </g>
     </g>
     <g id="text_12">
      <!-- 5.0 -->
      <g transform="translate(10.71 66.0912) scale(0.08 -0.08)">
       <use xlink:href="#Roboto-Regular-35"/>
       <use xlink:href="#Roboto-Regular-2e" x="56.152344"/>
       <use xlink:href="#Roboto-Regular-30" x="82.470703"/>
      </g>
     </g>
    </g>
    <g id="ytick_4">
     <g id="line2d_81">
      <path d="M 28.8 34.1568 
L 273.6 34.1568 
" clip-path="url(#p0ae81dc5f8)" style="fill: none; stroke: #ffffff; stroke-linecap: square"/>
     </g>
     <g id="line2d_82">
      <g>
       <use xlink:href="#m31bfe09d35" x="28.8" y="34.1568" style="stroke: #000000; stroke-width: 0.8"/>
      </g>
     </g>
     <g id="text_13">
      <!-- 7.5 -->
      <g transform="translate(10.71 37.1568) scale(0.08 -0.08)">
       <use xlink:href="#Roboto-Regular-37"/>
       <use xlink:href="#Roboto-Regular-2e" x="56.152344"/>
       <use xlink:href="#Roboto-Regular-35" x="82.470703"/>
      </g>
     </g>
    </g>
    <g id="ytick_5">
     <g id="line2d_83">
      <path d="M 28.8 115.17312 
L 273.6 115.17312 
" clip-path="url(#p0ae81dc5f8)" style="fill: none; stroke: #ffffff; stroke-width: 0.5; stroke-linecap: square"/>
     </g>
     <g id="line2d_84">
      <defs>
       <path id="m8518db96cd" d="M 0 0 
L -2 0 
" style="stroke: #000000; stroke-width: 0.6"/>
      </defs>
      <g>
       <use xlink:href="#m8518db96cd" x="28.8" y="115.17312" style="stroke: #000000; stroke-width: 0.6"/>
      </g>
     </g>
    </g>
    <g id="ytick_6">
     <g id="line2d_85">
      <path d="M 28.8 109.38624 
L 273.6 109.38624 
" clip-path="url(#p0ae81dc5f8)" style="fill: none; stroke: #ffffff; stroke-width: 0.5; stroke-linecap: square"/>
     </g>
     <g id="line2d_86">
      <g>
       <use xlink:href="#m8518db96cd" x="28.8" y="109.38624" style="stroke: #000000; stroke-width: 0.6"/>
      </g>
     </g>
    </g>
    <g id="ytick_7">
     <g id="line2d_87">
      <path d="M 28.8 103.59936 
L 273.6 103.59936 
" clip-path="url(#p0ae81dc5f8)" style="fill: none; stroke: #ffffff; stroke-width: 0.5; stroke-linecap: square"/>
     </g>
     <g id="line2d_88">
      <g>
       <use xlink:href="#m8518db96cd" x="28.8" y="103.59936" style="stroke: #000000; stroke-width: 0.6"/>
      </g>
     </g>
    </g>
    <g id="ytick_8">
     <g id="line2d_89">
      <path d="M 28.8 97.81248 
L 273.6 97.81248 
" clip-path="url(#p0ae81dc5f8)" style="fill: none; stroke: #ffffff; stroke-width: 0.5; stroke-linecap: square"/>
     </g>
     <g id="line2d_90">
      <g>
       <use xlink:href="#m8518db96cd" x="28.8" y="97.81248" style="stroke: #000000; stroke-width: 0.6"/>
      </g>
     </g>
    </g>
    <g id="ytick_9">
     <g id="line2d_91">
      <path d="M 28.8 86.23872 
L 273.6 86.23872 
" clip-path="url(#p0ae81dc5f8)" style="fill: none; stroke: #ffffff; stroke-width: 0.5; stroke-linecap: square"/>
     </g>
     <g id="line2d_92">
      <g>
       <use xlink:href="#m8518db96cd" x="28.8" y="86.23872" style="stroke: #000000; stroke-width: 0.6"/>
      </g>
     </g>
    </g>
    <g id="ytick_10">
     <g id="line2d_93">
      <path d="M 28.8 80.45184 
L 273.6 80.45184 
" clip-path="url(#p0ae81dc5f8)" style="fill: none; stroke: #ffffff; stroke-width: 0.5; stroke-linecap: square"/>
     </g>
     <g id="line2d_94">
      <g>
       <use xlink:href="#m8518db96cd" x="28.8" y="80.45184" style="stroke: #000000; stroke-width: 0.6"/>
      </g>
     </g>
    </g>
    <g id="ytick_11">
     <g id="line2d_95">
      <path d="M 28.8 74.66496 
L 273.6 74.66496 
" clip-path="url(#p0ae81dc5f8)" style="fill: none; stroke: #ffffff; stroke-width: 0.5; stroke-linecap: square"/>
     </g>
     <g id="line2d_96">
      <g>
       <use xlink:href="#m8518db96cd" x="28.8" y="74.66496" style="stroke: #000000; stroke-width: 0.6"/>
      </g>
     </g>
    </g>
    <g id="ytick_12">
     <g id="line2d_97">
      <path d="M 28.8 68.87808 
L 273.6 68.87808 
" clip-path="url(#p0ae81dc5f8)" style="fill: none; stroke: #ffffff; stroke-width: 0.5; stroke-linecap: square"/>
     </g>
     <g id="line2d_98">
      <g>
       <use xlink:href="#m8518db96cd" x="28.8" y="68.87808" style="stroke: #000000; stroke-width: 0.6"/>
      </g>
     </g>
    </g>
    <g id="ytick_13">
     <g id="line2d_99">
      <path d="M 28.8 57.30432 
L 273.6 57.30432 
" clip-path="url(#p0ae81dc5f8)" style="fill: none; stroke: #ffffff; stroke-width: 0.5; stroke-linecap: square"/>
     </g>
     <g id="line2d_100">
      <g>
       <use xlink:href="#m8518db96cd" x="28.8" y="57.30432" style="stroke: #000000; stroke-width: 0.6"/>
      </g>
     </g>
    </g>
    <g id="ytick_14">
     <g id="line2d_101">
      <path d="M 28.8 51.51744 
L 273.6 51.51744 
" clip-path="url(#p0ae81dc5f8)" style="fill: none; stroke: #ffffff; stroke-width: 0.5; stroke-linecap: square"/>
     </g>
     <g id="line2d_102">
      <g>
       <use xlink:href="#m8518db96cd" x="28.8" y="51.51744" style="stroke: #000000; stroke-width: 0.6"/>
      </g>
     </g>
    </g>
    <g id="ytick_15">
     <g id="line2d_103">
      <path d="M 28.8 45.73056 
L 273.6 45.73056 
" clip-path="url(#p0ae81dc5f8)" style="fill: none; stroke: #ffffff; stroke-width: 0.5; stroke-linecap: square"/>
     </g>
     <g id="line2d_104">
      <g>
       <use xlink:href="#m8518db96cd" x="28.8" y="45.73056" style="stroke: #000000; stroke-width: 0.6"/>
      </g>
     </g>
    </g>
    <g id="ytick_16">
     <g id="line2d_105">
      <path d="M 28.8 39.94368 
L 273.6 39.94368 
" clip-path="url(#p0ae81dc5f8)" style="fill: none; stroke: #ffffff; stroke-width: 0.5; stroke-linecap: square"/>
     </g>
     <g id="line2d_106">
      <g>
       <use xlink:href="#m8518db96cd" x="28.8" y="39.94368" style="stroke: #000000; stroke-width: 0.6"/>
      </g>
     </g>
    </g>
    <g id="ytick_17">
     <g id="line2d_107">
      <path d="M 28.8 28.36992 
L 273.6 28.36992 
" clip-path="url(#p0ae81dc5f8)" style="fill: none; stroke: #ffffff; stroke-width: 0.5; stroke-linecap: square"/>
     </g>
     <g id="line2d_108">
      <g>
       <use xlink:href="#m8518db96cd" x="28.8" y="28.36992" style="stroke: #000000; stroke-width: 0.6"/>
      </g>
     </g>
    </g>
    <g id="text_14">
     <!-- Percentage (%) -->
     <g transform="translate(4.414687 107.116563) rotate(-90) scale(0.1 -0.1)">
      <defs>
       <path id="Roboto-Regular-63" d="M 1794 409 
Q 2103 409 2334 596 
Q 2566 784 2591 1066 
L 3138 1066 
Q 3122 775 2937 512 
Q 2753 250 2445 93 
Q 2138 -63 1794 -63 
Q 1103 -63 695 398 
Q 288 859 288 1659 
L 288 1756 
Q 288 2250 469 2634 
Q 650 3019 989 3231 
Q 1328 3444 1791 3444 
Q 2359 3444 2736 3103 
Q 3113 2763 3138 2219 
L 2591 2219 
Q 2566 2547 2342 2758 
Q 2119 2969 1791 2969 
Q 1350 2969 1108 2651 
Q 866 2334 866 1734 
L 866 1625 
Q 866 1041 1106 725 
Q 1347 409 1794 409 
z
" transform="scale(0.015625)"/>
       <path id="Roboto-Regular-6e" d="M 984 3381 
L 1003 2956 
Q 1391 3444 2016 3444 
Q 3088 3444 3097 2234 
L 3097 0 
L 2519 0 
L 2519 2238 
Q 2516 2603 2352 2778 
Q 2188 2953 1841 2953 
Q 1559 2953 1346 2803 
Q 1134 2653 1016 2409 
L 1016 0 
L 438 0 
L 438 3381 
L 984 3381 
z
" transform="scale(0.015625)"/>
       <path id="Roboto-Regular-74" d="M 1222 4200 
L 1222 3381 
L 1853 3381 
L 1853 2934 
L 1222 2934 
L 1222 838 
Q 1222 634 1306 532 
Q 1391 431 1594 431 
Q 1694 431 1869 469 
L 1869 0 
Q 1641 -63 1425 -63 
Q 1038 -63 841 171 
Q 644 406 644 838 
L 644 2934 
L 28 2934 
L 28 3381 
L 644 3381 
L 644 4200 
L 1222 4200 
z
" transform="scale(0.015625)"/>
       <path id="Roboto-Regular-61" d="M 2525 0 
Q 2475 100 2444 356 
Q 2041 -63 1481 -63 
Q 981 -63 661 220 
Q 341 503 341 938 
Q 341 1466 742 1758 
Q 1144 2050 1872 2050 
L 2434 2050 
L 2434 2316 
Q 2434 2619 2253 2798 
Q 2072 2978 1719 2978 
Q 1409 2978 1200 2822 
Q 991 2666 991 2444 
L 409 2444 
Q 409 2697 589 2933 
Q 769 3169 1076 3306 
Q 1384 3444 1753 3444 
Q 2338 3444 2669 3151 
Q 3000 2859 3013 2347 
L 3013 791 
Q 3013 325 3131 50 
L 3131 0 
L 2525 0 
z
M 1566 441 
Q 1838 441 2081 581 
Q 2325 722 2434 947 
L 2434 1641 
L 1981 1641 
Q 919 1641 919 1019 
Q 919 747 1100 594 
Q 1281 441 1566 441 
z
" transform="scale(0.015625)"/>
       <path id="Roboto-Regular-25" d="M 328 3675 
Q 328 4084 589 4350 
Q 850 4616 1259 4616 
Q 1675 4616 1933 4348 
Q 2191 4081 2191 3656 
L 2191 3434 
Q 2191 3022 1930 2761 
Q 1669 2500 1266 2500 
Q 859 2500 593 2761 
Q 328 3022 328 3456 
L 328 3675 
z
M 759 3434 
Q 759 3191 896 3033 
Q 1034 2875 1266 2875 
Q 1488 2875 1623 3028 
Q 1759 3181 1759 3447 
L 1759 3675 
Q 1759 3919 1625 4078 
Q 1491 4238 1259 4238 
Q 1028 4238 893 4078 
Q 759 3919 759 3663 
L 759 3434 
z
M 2544 1116 
Q 2544 1525 2805 1789 
Q 3066 2053 3475 2053 
Q 3884 2053 4146 1790 
Q 4409 1528 4409 1094 
L 4409 872 
Q 4409 463 4148 198 
Q 3888 -66 3481 -66 
Q 3075 -66 2809 195 
Q 2544 456 2544 891 
L 2544 1116 
z
M 2975 872 
Q 2975 625 3112 467 
Q 3250 309 3481 309 
Q 3706 309 3840 464 
Q 3975 619 3975 884 
L 3975 1116 
Q 3975 1363 3839 1519 
Q 3703 1675 3475 1675 
Q 3253 1675 3114 1520 
Q 2975 1366 2975 1103 
L 2975 872 
z
M 1397 344 
L 1069 550 
L 3291 4106 
L 3619 3900 
L 1397 344 
z
" transform="scale(0.015625)"/>
      </defs>
      <use xlink:href="#Roboto-Regular-50"/>
      <use xlink:href="#Roboto-Regular-65" x="63.085938"/>
      <use xlink:href="#Roboto-Regular-72" x="116.064453"/>
      <use xlink:href="#Roboto-Regular-63" x="149.902344"/>
      <use xlink:href="#Roboto-Regular-65" x="202.246094"/>
      <use xlink:href="#Roboto-Regular-6e" x="255.224609"/>
      <use xlink:href="#Roboto-Regular-74" x="310.400391"/>
      <use xlink:href="#Roboto-Regular-61" x="343.066406"/>
      <use xlink:href="#Roboto-Regular-67" x="397.460938"/>
      <use xlink:href="#Roboto-Regular-65" x="453.564453"/>
      <use xlink:href="#Roboto-Regular-20" x="506.542969"/>
      <use xlink:href="#Roboto-Regular-28" x="531.298828"/>
      <use xlink:href="#Roboto-Regular-25" x="565.478516"/>
      <use xlink:href="#Roboto-Regular-29" x="638.720703"/>
     </g>
    </g>
   </g>
   <g id="PolyCollection_1">
    <defs>
     <path id="m6ad2df667a" d="M 28.8 -51.84 
L 28.8 -51.84 
L 30.16 -51.84 
L 31.52 -51.84 
L 32.88 -51.84 
L 34.24 -51.84 
L 35.6 -51.84 
L 36.96 -51.84 
L 38.32 -51.84 
L 39.68 -51.84 
L 41.04 -51.84 
L 42.4 -51.84 
L 43.76 -51.84 
L 45.12 -51.84 
L 46.48 -51.84 
L 47.84 -51.84 
L 49.2 -51.84 
L 50.56 -51.84 
L 51.92 -51.84 
L 53.28 -51.84 
L 54.64 -51.84 
L 56 -51.84 
L 57.36 -51.84 
L 58.72 -51.84 
L 60.08 -51.84 
L 61.44 -51.84 
L 62.8 -51.84 
L 64.16 -51.84 
L 65.52 -51.84 
L 66.88 -51.84 
L 68.24 -51.84 
L 68.24 -51.84 
L 68.24 -51.84 
L 66.88 -51.84 
L 65.52 -51.84 
L 64.16 -51.84 
L 62.8 -51.84 
L 61.44 -51.84 
L 60.08 -51.84 
L 58.72 -51.84 
L 57.36 -51.84 
L 56 -51.84 
L 54.64 -51.84 
L 53.28 -51.84 
L 51.92 -51.84 
L 50.56 -51.84 
L 49.2 -51.84 
L 47.84 -51.84 
L 46.48 -51.84 
L 45.12 -51.84 
L 43.76 -51.84 
L 42.4 -51.84 
L 41.04 -51.84 
L 39.68 -51.84 
L 38.32 -51.84 
L 36.96 -51.84 
L 35.6 -51.84 
L 34.24 -51.84 
L 32.88 -51.84 
L 31.52 -51.84 
L 30.16 -51.84 
L 28.8 -51.84 
z
"/>
    </defs>
    <g clip-path="url(#p0ae81dc5f8)">
     <use xlink:href="#m6ad2df667a" x="0" y="172.8" style="fill: #dbf5f5; fill-opacity: 0.5"/>
    </g>
   </g>
   <g id="PolyCollection_2">
    <defs>
     <path id="m061f0434eb" d="M 68.24 -51.84 
L 68.24 -51.84 
L 69.6 -51.84 
L 70.96 -51.84 
L 72.32 -51.84 
L 73.68 -51.84 
L 75.04 -51.84 
L 76.4 -51.84 
L 77.76 -51.84 
L 79.12 -51.84 
L 80.48 -51.84 
L 81.84 -51.84 
L 83.2 -51.84 
L 84.56 -51.84 
L 85.92 -51.84 
L 87.28 -51.84 
L 88.64 -51.84 
L 90 -51.84 
L 91.36 -51.84 
L 92.72 -51.84 
L 94.08 -51.84 
L 95.44 -51.84 
L 96.8 -51.84 
L 98.16 -51.84 
L 99.52 -51.84 
L 100.88 -51.84 
L 102.24 -51.84 
L 103.6 -51.84 
L 104.96 -51.84 
L 106.32 -51.84 
L 107.68 -51.84 
L 109.04 -51.84 
L 110.4 -51.84 
L 111.76 -51.84 
L 113.12 -51.84 
L 114.48 -51.84 
L 115.84 -51.84 
L 117.2 -51.84 
L 118.56 -51.84 
L 119.92 -51.84 
L 121.28 -51.84 
L 122.64 -51.84 
L 124 -51.84 
L 125.36 -51.84 
L 126.72 -51.84 
L 128.08 -51.84 
L 129.44 -51.84 
L 130.8 -51.84 
L 132.16 -51.84 
L 133.52 -51.84 
L 134.88 -51.84 
L 136.24 -51.84 
L 136.24 -51.84 
L 136.24 -51.84 
L 134.88 -51.84 
L 133.52 -51.84 
L 132.16 -51.84 
L 130.8 -51.84 
L 129.44 -51.84 
L 128.08 -51.84 
L 126.72 -51.84 
L 125.36 -51.84 
L 124 -51.84 
L 122.64 -51.84 
L 121.28 -51.84 
L 119.92 -51.84 
L 118.56 -51.84 
L 117.2 -51.84 
L 115.84 -51.84 
L 114.48 -51.84 
L 113.12 -51.84 
L 111.76 -51.84 
L 110.4 -51.84 
L 109.04 -51.84 
L 107.68 -51.84 
L 106.32 -51.84 
L 104.96 -51.84 
L 103.6 -51.84 
L 102.24 -51.84 
L 100.88 -51.84 
L 99.52 -51.84 
L 98.16 -51.84 
L 96.8 -51.84 
L 95.44 -51.84 
L 94.08 -51.84 
L 92.72 -51.84 
L 91.36 -51.84 
L 90 -51.84 
L 88.64 -51.84 
L 87.28 -51.84 
L 85.92 -51.84 
L 84.56 -51.84 
L 83.2 -51.84 
L 81.84 -51.84 
L 80.48 -51.84 
L 79.12 -51.84 
L 77.76 -51.84 
L 76.4 -51.84 
L 75.04 -51.84 
L 73.68 -51.84 
L 72.32 -51.84 
L 70.96 -51.84 
L 69.6 -51.84 
L 68.24 -51.84 
z
"/>
    </defs>
    <g clip-path="url(#p0ae81dc5f8)">
     <use xlink:href="#m061f0434eb" x="0" y="172.8" style="fill: #e0f2b0; fill-opacity: 0.5"/>
    </g>
   </g>
   <g id="PolyCollection_3">
    <defs>
     <path id="m45a7e8a282" d="M 136.24 -51.84 
L 136.24 -51.84 
L 137.6 -51.84 
L 138.96 -51.84 
L 140.32 -51.84 
L 141.68 -51.84 
L 143.04 -51.84 
L 144.4 -56.064 
L 145.76 -55.008 
L 147.12 -53.952 
L 148.48 -57.12 
L 149.84 -57.12 
L 151.2 -53.952 
L 152.56 -53.424 
L 153.92 -52.896 
L 155.28 -52.896 
L 156.64 -52.896 
L 158 -56.592 
L 159.36 -70.848 
L 160.72 -77.184 
L 162.08 -81.408 
L 163.44 -89.856 
L 163.44 -51.84 
L 163.44 -51.84 
L 162.08 -51.84 
L 160.72 -51.84 
L 159.36 -51.84 
L 158 -51.84 
L 156.64 -51.84 
L 155.28 -51.84 
L 153.92 -51.84 
L 152.56 -51.84 
L 151.2 -51.84 
L 149.84 -51.84 
L 148.48 -51.84 
L 147.12 -51.84 
L 145.76 -51.84 
L 144.4 -51.84 
L 143.04 -51.84 
L 141.68 -51.84 
L 140.32 -51.84 
L 138.96 -51.84 
L 137.6 -51.84 
L 136.24 -51.84 
z
"/>
    </defs>
    <g clip-path="url(#p0ae81dc5f8)">
     <use xlink:href="#m45a7e8a282" x="0" y="172.8" style="fill: #bfe375; fill-opacity: 0.5"/>
    </g>
   </g>
   <g id="PolyCollection_4">
    <defs>
     <path id="mee716a1b67" d="M 163.44 -51.84 
L 163.44 -89.856 
L 164.8 -83.52 
L 166.16 -85.632 
L 167.52 -100.416 
L 168.88 -104.64 
L 170.24 -96.192 
L 171.6 -85.632 
L 172.96 -100.416 
L 174.32 -117.312 
L 175.68 -110.976 
L 177.04 -106.752 
L 177.04 -51.84 
L 177.04 -51.84 
L 175.68 -51.84 
L 174.32 -51.84 
L 172.96 -51.84 
L 171.6 -51.84 
L 170.24 -51.84 
L 168.88 -51.84 
L 167.52 -51.84 
L 166.16 -51.84 
L 164.8 -51.84 
L 163.44 -51.84 
z
"/>
    </defs>
    <g clip-path="url(#p0ae81dc5f8)">
     <use xlink:href="#mee716a1b67" x="0" y="172.8" style="fill: #91d18f; fill-opacity: 0.5"/>
    </g>
   </g>
   <g id="PolyCollection_5">
    <defs>
     <path id="mf06ba22dba" d="M 177.04 -51.84 
L 177.04 -106.752 
L 178.4 -98.304 
L 179.76 -94.08 
L 181.12 -110.976 
L 182.48 -106.752 
L 183.84 -87.744 
L 185.2 -89.856 
L 186.56 -98.304 
L 187.92 -87.744 
L 189.28 -68.736 
L 190.64 -72.96 
L 190.64 -51.84 
L 190.64 -51.84 
L 189.28 -51.84 
L 187.92 -51.84 
L 186.56 -51.84 
L 185.2 -51.84 
L 183.84 -51.84 
L 182.48 -51.84 
L 181.12 -51.84 
L 179.76 -51.84 
L 178.4 -51.84 
L 177.04 -51.84 
z
"/>
    </defs>
    <g clip-path="url(#p0ae81dc5f8)">
     <use xlink:href="#mf06ba22dba" x="0" y="172.8" style="fill: #fff0ba; fill-opacity: 0.5"/>
    </g>
   </g>
   <g id="PolyCollection_6">
    <defs>
     <path id="me7d9b58804" d="M 190.64 -51.84 
L 190.64 -72.96 
L 192 -72.96 
L 193.36 -68.736 
L 194.72 -64.512 
L 196.08 -56.064 
L 197.44 -58.176 
L 198.8 -68.736 
L 200.16 -66.624 
L 201.52 -62.4 
L 202.88 -60.64 
L 204.24 -52.544 
L 205.6 -52.544 
L 206.96 -52.544 
L 208.32 -52.544 
L 209.68 -52.544 
L 211.04 -54.304 
L 212.4 -54.656 
L 213.76 -53.248 
L 215.12 -53.248 
L 216.48 -53.6 
L 217.84 -53.952 
L 217.84 -51.84 
L 217.84 -51.84 
L 216.48 -51.84 
L 215.12 -51.84 
L 213.76 -51.84 
L 212.4 -51.84 
L 211.04 -51.84 
L 209.68 -51.84 
L 208.32 -51.84 
L 206.96 -51.84 
L 205.6 -51.84 
L 204.24 -51.84 
L 202.88 -51.84 
L 201.52 -51.84 
L 200.16 -51.84 
L 198.8 -51.84 
L 197.44 -51.84 
L 196.08 -51.84 
L 194.72 -51.84 
L 193.36 -51.84 
L 192 -51.84 
L 190.64 -51.84 
z
"/>
    </defs>
    <g clip-path="url(#p0ae81dc5f8)">
     <use xlink:href="#me7d9b58804" x="0" y="172.8" style="fill: #ffd4b5; fill-opacity: 0.5"/>
    </g>
   </g>
   <g id="PolyCollection_7">
    <defs>
     <path id="m264334b5c9" d="M 217.84 -51.84 
L 217.84 -53.952 
L 219.2 -53.3184 
L 220.56 -52.6848 
L 221.92 -52.6848 
L 223.28 -52.6848 
L 224.64 -52.6848 
L 226 -52.587323 
L 227.36 -52.489846 
L 228.72 -52.489846 
L 230.08 -52.489846 
L 231.44 -52.489846 
L 232.8 -52.489846 
L 234.16 -52.489846 
L 235.52 -52.489846 
L 236.88 -52.489846 
L 238.24 -52.489846 
L 239.6 -52.489846 
L 240.96 -52.489846 
L 242.32 -52.489846 
L 243.68 -52.587323 
L 245.04 -52.6848 
L 245.04 -51.84 
L 245.04 -51.84 
L 243.68 -51.84 
L 242.32 -51.84 
L 240.96 -51.84 
L 239.6 -51.84 
L 238.24 -51.84 
L 236.88 -51.84 
L 235.52 -51.84 
L 234.16 -51.84 
L 232.8 -51.84 
L 231.44 -51.84 
L 230.08 -51.84 
L 228.72 -51.84 
L 227.36 -51.84 
L 226 -51.84 
L 224.64 -51.84 
L 223.28 -51.84 
L 221.92 -51.84 
L 220.56 -51.84 
L 219.2 -51.84 
L 217.84 -51.84 
z
"/>
    </defs>
    <g clip-path="url(#p0ae81dc5f8)">
     <use xlink:href="#m264334b5c9" x="0" y="172.8" style="fill: #ffa8a6; fill-opacity: 0.5"/>
    </g>
   </g>
   <g id="PolyCollection_8">
    <defs>
     <path id="m494f25d3cb" d="M 245.04 -51.84 
L 245.04 -52.6848 
L 246.4 -52.6848 
L 247.76 -52.6848 
L 249.12 -52.6848 
L 250.48 -52.6848 
L 251.84 -51.84 
L 253.2 -51.84 
L 254.56 -51.84 
L 255.92 -51.84 
L 257.28 -51.84 
L 258.64 -51.84 
L 260 -51.84 
L 261.36 -51.84 
L 262.72 -51.84 
L 264.08 -51.84 
L 265.44 -51.84 
L 266.8 -51.84 
L 268.16 -51.84 
L 269.52 -51.84 
L 270.88 -51.84 
L 272.24 -51.84 
L 273.6 -51.84 
L 273.6 -51.84 
L 273.6 -51.84 
L 272.24 -51.84 
L 270.88 -51.84 
L 269.52 -51.84 
L 268.16 -51.84 
L 266.8 -51.84 
L 265.44 -51.84 
L 264.08 -51.84 
L 262.72 -51.84 
L 261.36 -51.84 
L 260 -51.84 
L 258.64 -51.84 
L 257.28 -51.84 
L 255.92 -51.84 
L 254.56 -51.84 
L 253.2 -51.84 
L 251.84 -51.84 
L 250.48 -51.84 
L 249.12 -51.84 
L 247.76 -51.84 
L 246.4 -51.84 
L 245.04 -51.84 
z
" style="stroke: #ff8c94; stroke-opacity: 0.5"/>
    </defs>
    <g clip-path="url(#p0ae81dc5f8)">
     <use xlink:href="#m494f25d3cb" x="0" y="172.8" style="fill: #ff8c94; fill-opacity: 0.5; stroke: #ff8c94; stroke-opacity: 0.5"/>
    </g>
   </g>
   <g id="PolyCollection_9"/>
   <g id="PolyCollection_10"/>
   <g id="PolyCollection_11">
    <defs>
     <path id="m53bf570d42" d="M 81.84 -51.84 
L 81.84 -51.84 
L 83.2 -51.84 
L 84.56 -51.84 
L 85.92 -51.84 
L 87.28 -51.84 
L 88.64 -51.84 
L 90 -51.84 
L 91.36 -60.288 
L 92.72 -60.288 
L 94.08 -66.624 
L 95.44 -64.512 
L 96.8 -56.064 
L 98.16 -72.96 
L 99.52 -87.744 
L 100.88 -87.744 
L 102.24 -94.08 
L 103.6 -100.416 
L 104.96 -110.976 
L 106.32 -142.656 
L 107.68 -146.88 
L 109.04 -129.984 
L 109.04 -51.84 
L 109.04 -51.84 
L 107.68 -51.84 
L 106.32 -51.84 
L 104.96 -51.84 
L 103.6 -51.84 
L 102.24 -51.84 
L 100.88 -51.84 
L 99.52 -51.84 
L 98.16 -51.84 
L 96.8 -51.84 
L 95.44 -51.84 
L 94.08 -51.84 
L 92.72 -51.84 
L 91.36 -51.84 
L 90 -51.84 
L 88.64 -51.84 
L 87.28 -51.84 
L 85.92 -51.84 
L 84.56 -51.84 
L 83.2 -51.84 
L 81.84 -51.84 
z
"/>
    </defs>
    <g clip-path="url(#p0ae81dc5f8)">
     <use xlink:href="#m53bf570d42" x="0" y="172.8" style="fill: #bfe375; fill-opacity: 0.5"/>
    </g>
   </g>
   <g id="PolyCollection_12">
    <defs>
     <path id="m6f7319f847" d="M 109.04 -51.84 
L 109.04 -129.984 
L 110.4 -138.432 
L 111.76 -134.208 
L 113.12 -123.648 
L 114.48 -113.088 
L 115.84 -100.416 
L 115.84 -51.84 
L 115.84 -51.84 
L 114.48 -51.84 
L 113.12 -51.84 
L 111.76 -51.84 
L 110.4 -51.84 
L 109.04 -51.84 
z
"/>
    </defs>
    <g clip-path="url(#p0ae81dc5f8)">
     <use xlink:href="#m6f7319f847" x="0" y="172.8" style="fill: #91d18f; fill-opacity: 0.5"/>
    </g>
   </g>
   <g id="PolyCollection_13">
    <defs>
     <path id="m4bc6570136" d="M 115.84 -51.84 
L 115.84 -100.416 
L 117.2 -104.64 
L 118.56 -108.864 
L 119.92 -96.192 
L 121.28 -81.408 
L 122.64 -66.624 
L 122.64 -51.84 
L 122.64 -51.84 
L 121.28 -51.84 
L 119.92 -51.84 
L 118.56 -51.84 
L 117.2 -51.84 
L 115.84 -51.84 
z
"/>
    </defs>
    <g clip-path="url(#p0ae81dc5f8)">
     <use xlink:href="#m4bc6570136" x="0" y="172.8" style="fill: #fff0ba; fill-opacity: 0.5"/>
    </g>
   </g>
   <g id="PolyCollection_14">
    <defs>
     <path id="mced0d181cb" d="M 122.64 -51.84 
L 122.64 -66.624 
L 124 -62.4 
L 125.36 -62.4 
L 126.72 -56.064 
L 128.08 -56.064 
L 129.44 -58.176 
L 130.8 -58.176 
L 132.16 -56.064 
L 133.52 -56.064 
L 134.88 -54.144 
L 136.24 -52.224 
L 136.24 -51.84 
L 136.24 -51.84 
L 134.88 -51.84 
L 133.52 -51.84 
L 132.16 -51.84 
L 130.8 -51.84 
L 129.44 -51.84 
L 128.08 -51.84 
L 126.72 -51.84 
L 125.36 -51.84 
L 124 -51.84 
L 122.64 -51.84 
z
"/>
    </defs>
    <g clip-path="url(#p0ae81dc5f8)">
     <use xlink:href="#mced0d181cb" x="0" y="172.8" style="fill: #ffd4b5; fill-opacity: 0.5"/>
    </g>
   </g>
   <g id="PolyCollection_15">
    <defs>
     <path id="m5e610fa5fd" d="M 136.24 -51.84 
L 136.24 -52.224 
L 137.6 -52.224 
L 138.96 -52.224 
L 140.32 -52.224 
L 141.68 -52.224 
L 143.04 -52.224 
L 144.4 -52.224 
L 145.76 -52.224 
L 147.12 -52.224 
L 148.48 -52.224 
L 149.84 -52.224 
L 149.84 -51.84 
L 149.84 -51.84 
L 148.48 -51.84 
L 147.12 -51.84 
L 145.76 -51.84 
L 144.4 -51.84 
L 143.04 -51.84 
L 141.68 -51.84 
L 140.32 -51.84 
L 138.96 -51.84 
L 137.6 -51.84 
L 136.24 -51.84 
z
"/>
    </defs>
    <g clip-path="url(#p0ae81dc5f8)">
     <use xlink:href="#m5e610fa5fd" x="0" y="172.8" style="fill: #ffa8a6; fill-opacity: 0.5"/>
    </g>
   </g>
   <g id="PolyCollection_16">
    <defs>
     <path id="mbb61f17a02" d="M 149.84 -51.84 
L 149.84 -52.224 
L 151.2 -51.84 
L 152.56 -51.84 
L 153.92 -51.84 
L 155.28 -51.84 
L 156.64 -51.84 
L 158 -51.84 
L 159.36 -51.84 
L 160.72 -51.84 
L 162.08 -51.84 
L 163.44 -51.84 
L 164.8 -51.84 
L 166.16 -51.84 
L 167.52 -51.84 
L 168.88 -51.84 
L 170.24 -51.84 
L 171.6 -51.84 
L 172.96 -51.84 
L 174.32 -51.84 
L 175.68 -51.84 
L 177.04 -51.84 
L 178.4 -51.84 
L 179.76 -51.84 
L 181.12 -51.84 
L 182.48 -51.84 
L 183.84 -51.84 
L 185.2 -51.84 
L 186.56 -51.84 
L 187.92 -51.84 
L 189.28 -51.84 
L 190.64 -51.84 
L 192 -51.84 
L 193.36 -51.84 
L 194.72 -51.84 
L 196.08 -51.84 
L 197.44 -51.84 
L 198.8 -51.84 
L 200.16 -51.84 
L 201.52 -51.84 
L 202.88 -51.84 
L 204.24 -51.84 
L 205.6 -51.84 
L 206.96 -51.84 
L 208.32 -51.84 
L 209.68 -51.84 
L 211.04 -51.84 
L 212.4 -51.84 
L 213.76 -51.84 
L 215.12 -51.84 
L 216.48 -51.84 
L 217.84 -51.84 
L 219.2 -51.84 
L 220.56 -51.84 
L 221.92 -51.84 
L 223.28 -51.84 
L 224.64 -51.84 
L 226 -51.84 
L 227.36 -51.84 
L 228.72 -51.84 
L 230.08 -51.84 
L 231.44 -51.84 
L 232.8 -51.84 
L 234.16 -51.84 
L 235.52 -51.84 
L 236.88 -51.84 
L 238.24 -51.84 
L 239.6 -51.84 
L 240.96 -51.84 
L 242.32 -51.84 
L 243.68 -51.84 
L 245.04 -51.84 
L 246.4 -51.84 
L 247.76 -51.84 
L 249.12 -51.84 
L 250.48 -51.84 
L 251.84 -51.84 
L 253.2 -51.84 
L 254.56 -51.84 
L 255.92 -51.84 
L 257.28 -51.84 
L 258.64 -51.84 
L 260 -51.84 
L 261.36 -51.84 
L 262.72 -51.84 
L 264.08 -51.84 
L 265.44 -51.84 
L 266.8 -51.84 
L 268.16 -51.84 
L 269.52 -51.84 
L 270.88 -51.84 
L 272.24 -51.84 
L 273.6 -51.84 
L 273.6 -51.84 
L 273.6 -51.84 
L 272.24 -51.84 
L 270.88 -51.84 
L 269.52 -51.84 
L 268.16 -51.84 
L 266.8 -51.84 
L 265.44 -51.84 
L 264.08 -51.84 
L 262.72 -51.84 
L 261.36 -51.84 
L 260 -51.84 
L 258.64 -51.84 
L 257.28 -51.84 
L 255.92 -51.84 
L 254.56 -51.84 
L 253.2 -51.84 
L 251.84 -51.84 
L 250.48 -51.84 
L 249.12 -51.84 
L 247.76 -51.84 
L 246.4 -51.84 
L 245.04 -51.84 
L 243.68 -51.84 
L 242.32 -51.84 
L 240.96 -51.84 
L 239.6 -51.84 
L 238.24 -51.84 
L 236.88 -51.84 
L 235.52 -51.84 
L 234.16 -51.84 
L 232.8 -51.84 
L 231.44 -51.84 
L 230.08 -51.84 
L 228.72 -51.84 
L 227.36 -51.84 
L 226 -51.84 
L 224.64 -51.84 
L 223.28 -51.84 
L 221.92 -51.84 
L 220.56 -51.84 
L 219.2 -51.84 
L 217.84 -51.84 
L 216.48 -51.84 
L 215.12 -51.84 
L 213.76 -51.84 
L 212.4 -51.84 
L 211.04 -51.84 
L 209.68 -51.84 
L 208.32 -51.84 
L 206.96 -51.84 
L 205.6 -51.84 
L 204.24 -51.84 
L 202.88 -51.84 
L 201.52 -51.84 
L 200.16 -51.84 
L 198.8 -51.84 
L 197.44 -51.84 
L 196.08 -51.84 
L 194.72 -51.84 
L 193.36 -51.84 
L 192 -51.84 
L 190.64 -51.84 
L 189.28 -51.84 
L 187.92 -51.84 
L 186.56 -51.84 
L 185.2 -51.84 
L 183.84 -51.84 
L 182.48 -51.84 
L 181.12 -51.84 
L 179.76 -51.84 
L 178.4 -51.84 
L 177.04 -51.84 
L 175.68 -51.84 
L 174.32 -51.84 
L 172.96 -51.84 
L 171.6 -51.84 
L 170.24 -51.84 
L 168.88 -51.84 
L 167.52 -51.84 
L 166.16 -51.84 
L 164.8 -51.84 
L 163.44 -51.84 
L 162.08 -51.84 
L 160.72 -51.84 
L 159.36 -51.84 
L 158 -51.84 
L 156.64 -51.84 
L 155.28 -51.84 
L 153.92 -51.84 
L 152.56 -51.84 
L 151.2 -51.84 
L 149.84 -51.84 
z
" style="stroke: #ff8c94; stroke-opacity: 0.5"/>
    </defs>
    <g clip-path="url(#p0ae81dc5f8)">
     <use xlink:href="#mbb61f17a02" x="0" y="172.8" style="fill: #ff8c94; fill-opacity: 0.5; stroke: #ff8c94; stroke-opacity: 0.5"/>
    </g>
   </g>
   <g id="line2d_109">
    <path d="M 28.8 120.96 
L 143.04 120.96 
L 144.4 116.736 
L 147.12 118.848 
L 148.48 115.68 
L 149.84 115.68 
L 151.2 118.848 
L 153.92 119.904 
L 156.64 119.904 
L 158 116.208 
L 159.36 101.952 
L 160.72 95.616 
L 162.08 91.392 
L 163.44 82.944 
L 164.8 89.28 
L 166.16 87.168 
L 167.52 72.384 
L 168.88 68.16 
L 170.24 76.608 
L 171.6 87.168 
L 172.96 72.384 
L 174.32 55.488 
L 175.68 61.824 
L 177.04 66.048 
L 178.4 74.496 
L 179.76 78.72 
L 181.12 61.824 
L 182.48 66.048 
L 183.84 85.056 
L 185.2 82.944 
L 186.56 74.496 
L 187.92 85.056 
L 189.28 104.064 
L 190.64 99.84 
L 192 99.84 
L 194.72 108.288 
L 196.08 116.736 
L 197.44 114.624 
L 198.8 104.064 
L 200.16 106.176 
L 201.52 110.4 
L 202.88 112.16 
L 204.24 120.256 
L 209.68 120.256 
L 211.04 118.496 
L 212.4 118.144 
L 213.76 119.552 
L 215.12 119.552 
L 217.84 118.848 
L 220.56 120.1152 
L 226 120.212677 
L 228.72 120.310154 
L 243.68 120.212677 
L 246.4 120.1152 
L 250.48 120.1152 
L 251.84 120.96 
L 273.6 120.96 
L 273.6 120.96 
" clip-path="url(#p0ae81dc5f8)" style="fill: none; stroke: #ff0000; stroke-width: 1.5; stroke-linecap: square"/>
   </g>
   <g id="line2d_110">
    <path d="M 28.8 120.96 
L 90 120.96 
L 91.36 112.512 
L 92.72 112.512 
L 94.08 106.176 
L 95.44 108.288 
L 96.8 116.736 
L 98.16 99.84 
L 99.52 85.056 
L 100.88 85.056 
L 103.6 72.384 
L 104.96 61.824 
L 106.32 30.144 
L 107.68 25.92 
L 109.04 42.816 
L 110.4 34.368 
L 111.76 38.592 
L 114.48 59.712 
L 115.84 72.384 
L 118.56 63.936 
L 119.92 76.608 
L 122.64 106.176 
L 124 110.4 
L 125.36 110.4 
L 126.72 116.736 
L 128.08 116.736 
L 129.44 114.624 
L 130.8 114.624 
L 132.16 116.736 
L 133.52 116.736 
L 136.24 120.576 
L 149.84 120.576 
L 151.2 120.96 
L 273.6 120.96 
L 273.6 120.96 
" clip-path="url(#p0ae81dc5f8)" style="fill: none; stroke: #1e90ff; stroke-width: 1.5; stroke-linecap: square"/>
   </g>
   <g id="patch_3">
    <path d="M 28.8 120.96 
L 28.8 25.92 
" style="fill: none; stroke: #000000; stroke-width: 0.8; stroke-linejoin: miter; stroke-linecap: square"/>
   </g>
   <g id="patch_4">
    <path d="M 273.6 120.96 
L 273.6 25.92 
" style="fill: none; stroke: #000000; stroke-width: 0.8; stroke-linejoin: miter; stroke-linecap: square"/>
   </g>
   <g id="patch_5">
    <path d="M 28.8 120.96 
L 273.6 120.96 
" style="fill: none; stroke: #000000; stroke-width: 0.8; stroke-linejoin: miter; stroke-linecap: square"/>
   </g>
   <g id="patch_6">
    <path d="M 28.8 25.92 
L 273.6 25.92 
" style="fill: none; stroke: #000000; stroke-width: 0.8; stroke-linejoin: miter; stroke-linecap: square"/>
   </g>
   <g id="text_15">
    <!-- Distribution -->
    <g transform="translate(120.44625 19.92) scale(0.12 -0.12)">
     <defs>
      <path id="Roboto-Regular-44" d="M 528 0 
L 528 4550 
L 1813 4550 
Q 2406 4550 2862 4287 
Q 3319 4025 3567 3540 
Q 3816 3056 3819 2428 
L 3819 2138 
Q 3819 1494 3570 1009 
Q 3322 525 2861 265 
Q 2400 6 1788 0 
L 528 0 
z
M 1128 4056 
L 1128 491 
L 1759 491 
Q 2453 491 2839 922 
Q 3225 1353 3225 2150 
L 3225 2416 
Q 3225 3191 2861 3620 
Q 2497 4050 1828 4056 
L 1128 4056 
z
" transform="scale(0.015625)"/>
      <path id="Roboto-Regular-69" d="M 1066 0 
L 488 0 
L 488 3381 
L 1066 3381 
L 1066 0 
z
M 441 4278 
Q 441 4419 527 4516 
Q 613 4613 781 4613 
Q 950 4613 1037 4516 
Q 1125 4419 1125 4278 
Q 1125 4138 1037 4044 
Q 950 3950 781 3950 
Q 613 3950 527 4044 
Q 441 4138 441 4278 
z
" transform="scale(0.015625)"/>
      <path id="Roboto-Regular-62" d="M 3300 1653 
Q 3300 878 2944 407 
Q 2588 -63 1988 -63 
Q 1347 -63 997 391 
L 969 0 
L 438 0 
L 438 4800 
L 1016 4800 
L 1016 3009 
Q 1366 3444 1981 3444 
Q 2597 3444 2948 2978 
Q 3300 2513 3300 1703 
L 3300 1653 
z
M 2722 1719 
Q 2722 2309 2494 2631 
Q 2266 2953 1838 2953 
Q 1266 2953 1016 2422 
L 1016 959 
Q 1281 428 1844 428 
Q 2259 428 2490 750 
Q 2722 1072 2722 1719 
z
" transform="scale(0.015625)"/>
      <path id="Roboto-Regular-6f" d="M 284 1722 
Q 284 2219 479 2616 
Q 675 3013 1023 3228 
Q 1372 3444 1819 3444 
Q 2509 3444 2936 2966 
Q 3363 2488 3363 1694 
L 3363 1653 
Q 3363 1159 3173 767 
Q 2984 375 2632 156 
Q 2281 -63 1825 -63 
Q 1138 -63 711 415 
Q 284 894 284 1681 
L 284 1722 
z
M 866 1653 
Q 866 1091 1127 750 
Q 1388 409 1825 409 
Q 2266 409 2525 754 
Q 2784 1100 2784 1722 
Q 2784 2278 2520 2623 
Q 2256 2969 1819 2969 
Q 1391 2969 1128 2628 
Q 866 2288 866 1653 
z
" transform="scale(0.015625)"/>
     </defs>
     <use xlink:href="#Roboto-Regular-44"/>
     <use xlink:href="#Roboto-Regular-69" x="65.576172"/>
     <use xlink:href="#Roboto-Regular-73" x="89.84375"/>
     <use xlink:href="#Roboto-Regular-74" x="141.40625"/>
     <use xlink:href="#Roboto-Regular-72" x="174.072266"/>
     <use xlink:href="#Roboto-Regular-69" x="207.910156"/>
     <use xlink:href="#Roboto-Regular-62" x="232.177734"/>
     <use xlink:href="#Roboto-Regular-75" x="288.28125"/>
     <use xlink:href="#Roboto-Regular-74" x="343.408203"/>
     <use xlink:href="#Roboto-Regular-69" x="376.074219"/>
     <use xlink:href="#Roboto-Regular-6f" x="400.341797"/>
     <use xlink:href="#Roboto-Regular-6e" x="457.373047"/>
    </g>
   </g>
   <g id="legend_1">
    <g id="patch_7">
     <path d="M 212.225 55.6525 
L 268 55.6525 
Q 269.6 55.6525 269.6 54.0525 
L 269.6 31.52 
Q 269.6 29.92 268 29.92 
L 212.225 29.92 
Q 210.625 29.92 210.625 31.52 
L 210.625 54.0525 
Q 210.625 55.6525 212.225 55.6525 
z
" style="fill: #ffffff; opacity: 0.8; stroke: #cccccc; stroke-linejoin: miter"/>
    </g>
    <g id="line2d_111">
     <path d="M 213.825 36.32 
L 221.825 36.32 
L 229.825 36.32 
" style="fill: none; stroke: #ff0000; stroke-width: 1.5; stroke-linecap: square"/>
    </g>
    <g id="text_16">
     <!-- systolic -->
     <g transform="translate(236.225 39.12) scale(0.08 -0.08)">
      <defs>
       <path id="Roboto-Regular-79" d="M 1544 847 
L 2331 3381 
L 2950 3381 
L 1591 -522 
Q 1275 -1366 588 -1366 
L 478 -1356 
L 263 -1316 
L 263 -847 
L 419 -859 
Q 713 -859 877 -740 
Q 1041 -622 1147 -306 
L 1275 38 
L 69 3381 
L 700 3381 
L 1544 847 
z
" transform="scale(0.015625)"/>
       <path id="Roboto-Regular-6c" d="M 1066 0 
L 488 0 
L 488 4800 
L 1066 4800 
L 1066 0 
z
" transform="scale(0.015625)"/>
      </defs>
      <use xlink:href="#Roboto-Regular-73"/>
      <use xlink:href="#Roboto-Regular-79" x="51.5625"/>
      <use xlink:href="#Roboto-Regular-73" x="98.876953"/>
      <use xlink:href="#Roboto-Regular-74" x="150.439453"/>
      <use xlink:href="#Roboto-Regular-6f" x="183.105469"/>
      <use xlink:href="#Roboto-Regular-6c" x="240.136719"/>
      <use xlink:href="#Roboto-Regular-69" x="264.404297"/>
      <use xlink:href="#Roboto-Regular-63" x="288.671875"/>
     </g>
    </g>
    <g id="line2d_112">
     <path d="M 213.825 48.0275 
L 221.825 48.0275 
L 229.825 48.0275 
" style="fill: none; stroke: #1e90ff; stroke-width: 1.5; stroke-linecap: square"/>
    </g>
    <g id="text_17">
     <!-- diastolic -->
     <g transform="translate(236.225 50.8275) scale(0.08 -0.08)">
      <defs>
       <path id="Roboto-Regular-64" d="M 297 1719 
Q 297 2497 665 2970 
Q 1034 3444 1631 3444 
Q 2225 3444 2572 3038 
L 2572 4800 
L 3150 4800 
L 3150 0 
L 2619 0 
L 2591 363 
Q 2244 -63 1625 -63 
Q 1038 -63 667 418 
Q 297 900 297 1675 
L 297 1719 
z
M 875 1653 
Q 875 1078 1112 753 
Q 1350 428 1769 428 
Q 2319 428 2572 922 
L 2572 2475 
Q 2313 2953 1775 2953 
Q 1350 2953 1112 2625 
Q 875 2297 875 1653 
z
" transform="scale(0.015625)"/>
      </defs>
      <use xlink:href="#Roboto-Regular-64"/>
      <use xlink:href="#Roboto-Regular-69" x="56.396484"/>
      <use xlink:href="#Roboto-Regular-61" x="80.664062"/>
      <use xlink:href="#Roboto-Regular-73" x="135.058594"/>
      <use xlink:href="#Roboto-Regular-74" x="186.621094"/>
      <use xlink:href="#Roboto-Regular-6f" x="219.287109"/>
      <use xlink:href="#Roboto-Regular-6c" x="276.318359"/>
      <use xlink:href="#Roboto-Regular-69" x="300.585938"/>
      <use xlink:href="#Roboto-Regular-63" x="324.853516"/>
     </g>
    </g>
   </g>
  </g>
 </g>
 <defs>
  <clipPath id="p0ae81dc5f8">
   <rect x="28.8" y="25.92" width="244.8" height="95.04"/>
  </clipPath>
 </defs>
</svg>
